<svg xmlns="http://www.w3.org/2000/svg" xmlns:xlink="http://www.w3.org/1999/xlink" width="500" zoomAndPan="magnify" viewBox="0 0 375 374.999991" height="500" preserveAspectRatio="xMidYMid meet" version="1.0"><defs><g/><clipPath id="4bcd4fc916"><path d="M 156.335938 112.441406 L 218.585938 112.441406 L 218.585938 190.441406 L 156.335938 190.441406 Z M 156.335938 112.441406 " clip-rule="nonzero"/></clipPath></defs><g clip-path="url(#4bcd4fc916)"><path fill="#7ed957" d="M 215.574219 112.441406 L 159.355469 112.441406 C 157.746094 112.441406 156.472656 113.714844 156.472656 115.324219 L 156.472656 187.226562 C 156.472656 188.832031 157.746094 190.105469 159.355469 190.105469 L 215.574219 190.105469 C 217.183594 190.105469 218.457031 188.832031 218.457031 187.226562 L 218.457031 115.324219 C 218.523438 113.714844 217.183594 112.441406 215.574219 112.441406 Z M 167.394531 114.921875 L 179.457031 114.921875 L 179.457031 118.070312 C 179.457031 118.742188 179.992188 119.34375 180.730469 119.34375 C 181.464844 119.34375 181.9375 118.808594 181.9375 118.140625 L 181.9375 114.921875 L 193.058594 114.921875 L 193.058594 118.070312 C 193.058594 118.742188 193.59375 119.34375 194.332031 119.34375 C 195.003906 119.34375 195.605469 118.808594 195.605469 118.070312 L 195.605469 114.921875 L 207.933594 114.921875 L 207.933594 120.953125 C 207.933594 121.152344 207.867188 121.355469 207.667969 121.421875 L 204.25 123.566406 C 204.117188 123.632812 203.914062 123.699219 203.714844 123.632812 L 197.347656 121.085938 C 196.609375 120.820312 195.804688 120.820312 195.070312 121.085938 L 188.503906 123.699219 C 188.367188 123.769531 188.234375 123.769531 188.035156 123.699219 L 182.269531 121.152344 C 181.535156 120.820312 180.664062 120.820312 179.859375 121.152344 L 173.492188 123.769531 C 173.359375 123.835938 173.15625 123.835938 173.023438 123.769531 L 167.664062 121.355469 C 167.460938 121.289062 167.328125 121.085938 167.328125 120.820312 L 167.328125 114.921875 Z M 215.976562 187.292969 C 215.976562 187.492188 215.773438 187.695312 215.574219 187.695312 L 159.355469 187.695312 C 159.152344 187.695312 158.953125 187.492188 158.953125 187.292969 L 158.953125 115.324219 C 158.953125 115.125 159.152344 114.921875 159.355469 114.921875 L 164.847656 114.921875 L 164.847656 120.820312 C 164.847656 122.023438 165.585938 123.097656 166.65625 123.632812 L 172.019531 126.046875 C 172.753906 126.382812 173.625 126.382812 174.429688 126.113281 L 180.796875 123.5 C 180.929688 123.433594 181.132812 123.433594 181.265625 123.5 L 187.027344 126.046875 C 187.429688 126.246094 187.832031 126.3125 188.234375 126.3125 C 188.636719 126.3125 189.039062 126.246094 189.375 126.113281 L 195.941406 123.5 C 196.074219 123.433594 196.207031 123.433594 196.34375 123.5 L 202.707031 126.046875 C 203.648438 126.382812 204.652344 126.3125 205.457031 125.777344 L 208.875 123.632812 C 209.746094 123.097656 210.28125 122.09375 210.28125 121.019531 L 210.28125 114.988281 L 215.507812 114.988281 C 215.707031 114.988281 215.910156 115.191406 215.910156 115.390625 L 215.910156 187.292969 Z M 215.976562 187.292969 " fill-opacity="1" fill-rule="nonzero"/></g><path fill="#7ed957" d="M 174.496094 131.136719 L 167.796875 131.136719 C 166.1875 131.136719 164.914062 132.410156 164.914062 134.019531 L 164.914062 140.722656 C 164.914062 142.328125 166.1875 143.601562 167.796875 143.601562 L 174.496094 143.601562 C 176.105469 143.601562 177.378906 142.328125 177.378906 140.722656 L 177.378906 134.019531 C 177.445312 132.410156 176.105469 131.136719 174.496094 131.136719 Z M 174.898438 140.722656 C 174.898438 140.921875 174.699219 141.121094 174.496094 141.121094 L 167.796875 141.121094 C 167.597656 141.121094 167.394531 140.921875 167.394531 140.722656 L 167.394531 134.019531 C 167.394531 133.820312 167.597656 133.617188 167.796875 133.617188 L 174.496094 133.617188 C 174.699219 133.617188 174.898438 133.820312 174.898438 134.019531 Z M 174.898438 140.722656 " fill-opacity="1" fill-rule="nonzero"/><path fill="#7ed957" d="M 174.496094 150.503906 L 167.796875 150.503906 C 166.1875 150.503906 164.914062 151.777344 164.914062 153.386719 L 164.914062 160.085938 C 164.914062 161.695312 166.1875 162.96875 167.796875 162.96875 L 174.496094 162.96875 C 176.105469 162.96875 177.378906 161.695312 177.378906 160.085938 L 177.378906 153.386719 C 177.445312 151.777344 176.105469 150.503906 174.496094 150.503906 Z M 174.898438 160.085938 C 174.898438 160.289062 174.699219 160.488281 174.496094 160.488281 L 167.796875 160.488281 C 167.597656 160.488281 167.394531 160.289062 167.394531 160.085938 L 167.394531 153.386719 C 167.394531 153.183594 167.597656 152.984375 167.796875 152.984375 L 174.496094 152.984375 C 174.699219 152.984375 174.898438 153.183594 174.898438 153.386719 Z M 174.898438 160.085938 " fill-opacity="1" fill-rule="nonzero"/><path fill="#7ed957" d="M 174.496094 169.871094 L 167.796875 169.871094 C 166.1875 169.871094 164.914062 171.144531 164.914062 172.75 L 164.914062 179.453125 C 164.914062 181.058594 166.1875 182.332031 167.796875 182.332031 L 174.496094 182.332031 C 176.105469 182.332031 177.378906 181.058594 177.378906 179.453125 L 177.378906 172.75 C 177.445312 171.144531 176.105469 169.871094 174.496094 169.871094 Z M 174.898438 179.453125 C 174.898438 179.652344 174.699219 179.855469 174.496094 179.855469 L 167.796875 179.855469 C 167.597656 179.855469 167.394531 179.652344 167.394531 179.453125 L 167.394531 172.75 C 167.394531 172.550781 167.597656 172.347656 167.796875 172.347656 L 174.496094 172.347656 C 174.699219 172.347656 174.898438 172.550781 174.898438 172.75 Z M 174.898438 179.453125 " fill-opacity="1" fill-rule="nonzero"/><path fill="#7ed957" d="M 206.527344 136.097656 L 181.9375 136.097656 C 181.265625 136.097656 180.664062 136.632812 180.664062 137.371094 C 180.664062 138.109375 181.199219 138.644531 181.9375 138.644531 L 206.527344 138.644531 C 207.199219 138.644531 207.800781 138.109375 207.800781 137.371094 C 207.800781 136.632812 207.199219 136.097656 206.527344 136.097656 Z M 206.527344 136.097656 " fill-opacity="1" fill-rule="nonzero"/><path fill="#7ed957" d="M 206.527344 155.53125 L 181.9375 155.53125 C 181.265625 155.53125 180.664062 156.066406 180.664062 156.804688 C 180.664062 157.539062 181.265625 158.007812 181.9375 158.007812 L 206.527344 158.007812 C 207.199219 158.007812 207.800781 157.472656 207.800781 156.734375 C 207.800781 156 207.199219 155.53125 206.527344 155.53125 Z M 206.527344 155.53125 " fill-opacity="1" fill-rule="nonzero"/><path fill="#7ed957" d="M 206.527344 174.894531 L 181.9375 174.894531 C 181.265625 174.894531 180.664062 175.429688 180.664062 176.167969 C 180.664062 176.839844 181.199219 177.441406 181.9375 177.441406 L 206.527344 177.441406 C 207.199219 177.441406 207.800781 176.90625 207.800781 176.167969 C 207.734375 175.429688 207.199219 174.894531 206.527344 174.894531 Z M 206.527344 174.894531 " fill-opacity="1" fill-rule="nonzero"/><path fill="#7ed957" d="M 172.152344 135.425781 L 170.609375 136.96875 L 169.875 136.5 C 169.269531 136.164062 168.535156 136.296875 168.132812 136.902344 C 167.796875 137.503906 167.929688 138.242188 168.535156 138.644531 L 169.875 139.449219 C 170.140625 139.582031 170.410156 139.714844 170.746094 139.714844 C 171.148438 139.714844 171.550781 139.582031 171.882812 139.246094 L 173.894531 137.238281 C 174.363281 136.765625 174.363281 135.964844 173.894531 135.496094 C 173.425781 134.957031 172.621094 134.957031 172.152344 135.425781 Z M 172.152344 135.425781 " fill-opacity="1" fill-rule="nonzero"/><path fill="#7ed957" d="M 172.152344 154.792969 L 170.609375 156.332031 L 169.875 155.863281 C 169.269531 155.53125 168.535156 155.664062 168.132812 156.265625 C 167.796875 156.871094 167.929688 157.605469 168.535156 158.007812 L 169.875 158.8125 C 170.140625 158.949219 170.410156 159.082031 170.746094 159.082031 C 171.148438 159.082031 171.550781 158.949219 171.882812 158.613281 L 173.894531 156.601562 C 174.363281 156.132812 174.363281 155.328125 173.894531 154.859375 C 173.425781 154.324219 172.621094 154.324219 172.152344 154.792969 Z M 172.152344 154.792969 " fill-opacity="1" fill-rule="nonzero"/><path fill="#7ed957" d="M 172.152344 174.160156 L 170.609375 175.699219 L 169.875 175.230469 C 169.269531 174.894531 168.535156 175.03125 168.132812 175.632812 C 167.796875 176.234375 167.929688 176.972656 168.535156 177.375 L 169.875 178.179688 C 170.140625 178.3125 170.410156 178.445312 170.746094 178.445312 C 171.148438 178.445312 171.550781 178.3125 171.882812 177.976562 L 173.894531 175.96875 C 174.363281 175.5 174.363281 174.695312 173.894531 174.226562 C 173.425781 173.6875 172.621094 173.6875 172.152344 174.160156 Z M 172.152344 174.160156 " fill-opacity="1" fill-rule="nonzero"/><g fill="#7ed957" fill-opacity="1"><g transform="translate(128.220876, 232.860335)"><g><path d="M 20.609375 -20.828125 L 13.1875 -20.828125 L 13.1875 0 L 8.15625 0 L 8.15625 -20.828125 L 0.734375 -20.828125 L 0.734375 -25.0625 L 20.609375 -25.0625 Z M 20.609375 -20.828125 "/></g></g></g><g fill="#7ed957" fill-opacity="1"><g transform="translate(157.370933, 232.860335)"><g><path d="M 25.171875 0 L 19.640625 0 L 17.46875 -5.671875 L 7.453125 -5.671875 L 5.390625 0 L 0 0 L 9.765625 -25.0625 L 15.125 -25.0625 Z M 9 -9.90625 L 15.859375 -9.90625 L 12.390625 -19.21875 Z M 9 -9.90625 "/></g></g></g><g fill="#7ed957" fill-opacity="1"><g transform="translate(190.405114, 232.860335)"><g><path d="M 11.3125 -25.484375 C 14.082031 -25.484375 16.347656 -24.863281 18.109375 -23.625 C 19.867188 -22.382812 20.796875 -20.472656 20.890625 -17.890625 L 15.8125 -17.671875 C 15.65625 -18.835938 15.234375 -19.734375 14.546875 -20.359375 C 13.859375 -20.992188 12.753906 -21.3125 11.234375 -21.3125 C 10.179688 -21.3125 9.210938 -21.125 8.328125 -20.75 C 7.441406 -20.375 7 -19.734375 7 -18.828125 C 7 -18.054688 7.394531 -17.441406 8.1875 -16.984375 C 8.976562 -16.535156 10.390625 -16.078125 12.421875 -15.609375 C 14.316406 -15.160156 15.875 -14.6875 17.09375 -14.1875 C 18.320312 -13.6875 19.378906 -12.878906 20.265625 -11.765625 C 21.148438 -10.660156 21.59375 -9.164062 21.59375 -7.28125 C 21.59375 -6.320312 21.367188 -5.304688 20.921875 -4.234375 C 20.484375 -3.160156 19.765625 -2.238281 18.765625 -1.46875 C 18.015625 -0.863281 17.023438 -0.394531 15.796875 -0.0625 C 14.578125 0.257812 13.160156 0.421875 11.546875 0.421875 C 8.421875 0.421875 6.015625 -0.28125 4.328125 -1.6875 C 2.648438 -3.101562 1.628906 -5.257812 1.265625 -8.15625 L 6.15625 -8.609375 C 6.695312 -5.410156 8.519531 -3.8125 11.625 -3.8125 C 13.25 -3.8125 14.476562 -4.15625 15.3125 -4.84375 C 16.144531 -5.53125 16.5625 -6.34375 16.5625 -7.28125 C 16.5625 -7.957031 16.351562 -8.492188 15.9375 -8.890625 C 15.53125 -9.285156 14.890625 -9.628906 14.015625 -9.921875 C 13.140625 -10.210938 11.769531 -10.582031 9.90625 -11.03125 C 7.570312 -11.539062 5.695312 -12.398438 4.28125 -13.609375 C 2.875 -14.828125 2.171875 -16.453125 2.171875 -18.484375 C 2.171875 -19.578125 2.445312 -20.65625 3 -21.71875 C 3.5625 -22.78125 4.523438 -23.671875 5.890625 -24.390625 C 7.253906 -25.117188 9.0625 -25.484375 11.3125 -25.484375 Z M 11.3125 -25.484375 "/></g></g></g><g fill="#7ed957" fill-opacity="1"><g transform="translate(221.514731, 232.860335)"><g><path d="M 7.671875 -13.9375 L 17.921875 -25.0625 L 24.703125 -25.0625 L 15.296875 -15.296875 L 25.234375 0 L 18.6875 0 L 11.796875 -11.765625 L 7.671875 -7.5625 L 7.671875 0 L 2.625 0 L 2.625 -25.0625 L 7.671875 -25.0625 Z M 7.671875 -13.9375 "/></g></g></g><g fill="#7ed957" fill-opacity="1"><g transform="translate(101.432194, 255.710388)"><g><path d="M 9.8125 -1.078125 L 10.328125 -1.078125 C 10.472656 -1.078125 10.582031 -1.039062 10.65625 -0.96875 C 10.726562 -0.90625 10.765625 -0.765625 10.765625 -0.546875 C 10.765625 -0.328125 10.726562 -0.179688 10.65625 -0.109375 C 10.582031 -0.0351562 10.472656 0 10.328125 0 L 8.109375 0 C 7.960938 0 7.851562 -0.0351562 7.78125 -0.109375 C 7.707031 -0.179688 7.671875 -0.328125 7.671875 -0.546875 C 7.671875 -0.765625 7.707031 -0.90625 7.78125 -0.96875 C 7.851562 -1.039062 7.960938 -1.078125 8.109375 -1.078125 L 8.625 -1.078125 L 8.625 -7.046875 L 6.390625 -2.84375 C 6.328125 -2.71875 6.242188 -2.609375 6.140625 -2.515625 C 6.035156 -2.429688 5.878906 -2.390625 5.671875 -2.390625 C 5.453125 -2.390625 5.289062 -2.425781 5.1875 -2.5 C 5.082031 -2.582031 4.992188 -2.695312 4.921875 -2.84375 L 2.71875 -7.046875 L 2.71875 -1.078125 L 3.234375 -1.078125 C 3.367188 -1.078125 3.472656 -1.039062 3.546875 -0.96875 C 3.628906 -0.90625 3.671875 -0.765625 3.671875 -0.546875 C 3.671875 -0.328125 3.628906 -0.179688 3.546875 -0.109375 C 3.472656 -0.0351562 3.367188 0 3.234375 0 L 1.015625 0 C 0.859375 0 0.742188 -0.0351562 0.671875 -0.109375 C 0.597656 -0.179688 0.5625 -0.328125 0.5625 -0.546875 C 0.5625 -0.765625 0.597656 -0.90625 0.671875 -0.96875 C 0.742188 -1.039062 0.859375 -1.078125 1.015625 -1.078125 L 1.53125 -1.078125 L 1.53125 -7.75 L 1.015625 -7.75 C 0.859375 -7.75 0.742188 -7.785156 0.671875 -7.859375 C 0.597656 -7.929688 0.5625 -8.070312 0.5625 -8.28125 C 0.5625 -8.5 0.597656 -8.640625 0.671875 -8.703125 C 0.742188 -8.773438 0.859375 -8.8125 1.015625 -8.8125 L 2.703125 -8.8125 C 2.878906 -8.8125 3.015625 -8.722656 3.109375 -8.546875 L 5.671875 -3.71875 L 8.234375 -8.546875 C 8.273438 -8.628906 8.328125 -8.691406 8.390625 -8.734375 C 8.453125 -8.785156 8.53125 -8.8125 8.625 -8.8125 L 10.328125 -8.8125 C 10.472656 -8.8125 10.582031 -8.773438 10.65625 -8.703125 C 10.726562 -8.640625 10.765625 -8.5 10.765625 -8.28125 C 10.765625 -8.070312 10.726562 -7.929688 10.65625 -7.859375 C 10.582031 -7.785156 10.472656 -7.75 10.328125 -7.75 L 9.8125 -7.75 Z M 9.8125 -1.078125 "/></g></g></g><g fill="#7ed957" fill-opacity="1"><g transform="translate(120.381881, 255.710388)"><g><path d="M 8.09375 -1.078125 L 8.65625 -1.078125 C 8.789062 -1.078125 8.894531 -1.039062 8.96875 -0.96875 C 9.050781 -0.90625 9.09375 -0.765625 9.09375 -0.546875 C 9.09375 -0.328125 9.050781 -0.179688 8.96875 -0.109375 C 8.894531 -0.0351562 8.789062 0 8.65625 0 L 6.421875 0 C 6.285156 0 6.175781 -0.0351562 6.09375 -0.109375 C 6.019531 -0.179688 5.984375 -0.328125 5.984375 -0.546875 C 5.984375 -0.765625 6.019531 -0.90625 6.09375 -0.96875 C 6.175781 -1.039062 6.285156 -1.078125 6.421875 -1.078125 L 6.828125 -1.078125 L 6.203125 -2.984375 L 3.03125 -2.984375 L 2.390625 -1.078125 L 2.8125 -1.078125 C 2.957031 -1.078125 3.066406 -1.039062 3.140625 -0.96875 C 3.210938 -0.90625 3.25 -0.765625 3.25 -0.546875 C 3.25 -0.328125 3.210938 -0.179688 3.140625 -0.109375 C 3.066406 -0.0351562 2.957031 0 2.8125 0 L 0.59375 0 C 0.4375 0 0.320312 -0.0351562 0.25 -0.109375 C 0.175781 -0.179688 0.140625 -0.328125 0.140625 -0.546875 C 0.140625 -0.765625 0.175781 -0.90625 0.25 -0.96875 C 0.320312 -1.039062 0.4375 -1.078125 0.59375 -1.078125 L 1.140625 -1.078125 L 3.359375 -7.75 L 2.484375 -7.75 C 2.347656 -7.75 2.238281 -7.785156 2.15625 -7.859375 C 2.082031 -7.929688 2.046875 -8.070312 2.046875 -8.28125 C 2.046875 -8.5 2.082031 -8.640625 2.15625 -8.703125 C 2.238281 -8.773438 2.347656 -8.8125 2.484375 -8.8125 L 5.125 -8.8125 C 5.25 -8.8125 5.359375 -8.773438 5.453125 -8.703125 C 5.546875 -8.640625 5.613281 -8.546875 5.65625 -8.421875 Z M 4.609375 -7.75 L 3.375 -4.046875 L 5.84375 -4.046875 Z M 4.609375 -7.75 "/></g></g></g><g fill="#7ed957" fill-opacity="1"><g transform="translate(137.232733, 255.710388)"><g><path d="M 6.84375 -8.828125 L 9.078125 -8.828125 C 9.210938 -8.828125 9.316406 -8.789062 9.390625 -8.71875 C 9.460938 -8.644531 9.5 -8.5 9.5 -8.28125 C 9.5 -8.082031 9.460938 -7.941406 9.390625 -7.859375 C 9.316406 -7.785156 9.210938 -7.75 9.078125 -7.75 L 8.546875 -7.75 L 8.546875 -0.4375 C 8.546875 -0.0625 8.335938 0.125 7.921875 0.125 C 7.734375 0.125 7.585938 0.0976562 7.484375 0.046875 C 7.378906 -0.00390625 7.28125 -0.109375 7.1875 -0.265625 L 2.71875 -7 L 2.71875 -1.078125 L 3.234375 -1.078125 C 3.367188 -1.078125 3.472656 -1.039062 3.546875 -0.96875 C 3.628906 -0.90625 3.671875 -0.765625 3.671875 -0.546875 C 3.671875 -0.328125 3.628906 -0.179688 3.546875 -0.109375 C 3.472656 -0.0351562 3.367188 0 3.234375 0 L 1 0 C 0.851562 0 0.742188 -0.0351562 0.671875 -0.109375 C 0.597656 -0.179688 0.5625 -0.328125 0.5625 -0.546875 C 0.5625 -0.765625 0.597656 -0.90625 0.671875 -0.96875 C 0.742188 -1.039062 0.851562 -1.078125 1 -1.078125 L 1.515625 -1.078125 L 1.515625 -7.75 L 1 -7.75 C 0.851562 -7.75 0.742188 -7.785156 0.671875 -7.859375 C 0.597656 -7.941406 0.5625 -8.082031 0.5625 -8.28125 C 0.5625 -8.5 0.597656 -8.644531 0.671875 -8.71875 C 0.742188 -8.789062 0.851562 -8.828125 1 -8.828125 L 2.484375 -8.8125 C 2.671875 -8.8125 2.800781 -8.742188 2.875 -8.609375 L 7.359375 -1.8125 L 7.359375 -7.75 L 6.84375 -7.75 C 6.707031 -7.75 6.597656 -7.785156 6.515625 -7.859375 C 6.429688 -7.941406 6.390625 -8.082031 6.390625 -8.28125 C 6.390625 -8.5 6.429688 -8.644531 6.515625 -8.71875 C 6.597656 -8.789062 6.707031 -8.828125 6.84375 -8.828125 Z M 6.84375 -8.828125 "/></g></g></g><g fill="#7ed957" fill-opacity="1"><g transform="translate(154.727235, 255.710388)"><g><path d="M 8.09375 -1.078125 L 8.65625 -1.078125 C 8.789062 -1.078125 8.894531 -1.039062 8.96875 -0.96875 C 9.050781 -0.90625 9.09375 -0.765625 9.09375 -0.546875 C 9.09375 -0.328125 9.050781 -0.179688 8.96875 -0.109375 C 8.894531 -0.0351562 8.789062 0 8.65625 0 L 6.421875 0 C 6.285156 0 6.175781 -0.0351562 6.09375 -0.109375 C 6.019531 -0.179688 5.984375 -0.328125 5.984375 -0.546875 C 5.984375 -0.765625 6.019531 -0.90625 6.09375 -0.96875 C 6.175781 -1.039062 6.285156 -1.078125 6.421875 -1.078125 L 6.828125 -1.078125 L 6.203125 -2.984375 L 3.03125 -2.984375 L 2.390625 -1.078125 L 2.8125 -1.078125 C 2.957031 -1.078125 3.066406 -1.039062 3.140625 -0.96875 C 3.210938 -0.90625 3.25 -0.765625 3.25 -0.546875 C 3.25 -0.328125 3.210938 -0.179688 3.140625 -0.109375 C 3.066406 -0.0351562 2.957031 0 2.8125 0 L 0.59375 0 C 0.4375 0 0.320312 -0.0351562 0.25 -0.109375 C 0.175781 -0.179688 0.140625 -0.328125 0.140625 -0.546875 C 0.140625 -0.765625 0.175781 -0.90625 0.25 -0.96875 C 0.320312 -1.039062 0.4375 -1.078125 0.59375 -1.078125 L 1.140625 -1.078125 L 3.359375 -7.75 L 2.484375 -7.75 C 2.347656 -7.75 2.238281 -7.785156 2.15625 -7.859375 C 2.082031 -7.929688 2.046875 -8.070312 2.046875 -8.28125 C 2.046875 -8.5 2.082031 -8.640625 2.15625 -8.703125 C 2.238281 -8.773438 2.347656 -8.8125 2.484375 -8.8125 L 5.125 -8.8125 C 5.25 -8.8125 5.359375 -8.773438 5.453125 -8.703125 C 5.546875 -8.640625 5.613281 -8.546875 5.65625 -8.421875 Z M 4.609375 -7.75 L 3.375 -4.046875 L 5.84375 -4.046875 Z M 4.609375 -7.75 "/></g></g></g><g fill="#7ed957" fill-opacity="1"><g transform="translate(171.578087, 255.710388)"><g><path d="M 7.234375 -6.390625 C 7.035156 -6.390625 6.890625 -6.421875 6.796875 -6.484375 C 6.703125 -6.546875 6.65625 -6.65625 6.65625 -6.8125 L 6.65625 -7.53125 C 6.476562 -7.601562 6.226562 -7.675781 5.90625 -7.75 C 5.59375 -7.832031 5.203125 -7.875 4.734375 -7.875 C 3.816406 -7.875 3.113281 -7.585938 2.625 -7.015625 C 2.144531 -6.441406 1.90625 -5.570312 1.90625 -4.40625 C 1.90625 -3.257812 2.164062 -2.398438 2.6875 -1.828125 C 3.207031 -1.253906 3.972656 -0.96875 4.984375 -0.96875 C 5.347656 -0.96875 5.65625 -0.992188 5.90625 -1.046875 C 6.164062 -1.109375 6.378906 -1.171875 6.546875 -1.234375 L 6.546875 -3.75 L 5.1875 -3.75 C 5.039062 -3.75 4.921875 -3.785156 4.828125 -3.859375 C 4.742188 -3.941406 4.703125 -4.09375 4.703125 -4.3125 C 4.703125 -4.53125 4.742188 -4.675781 4.828125 -4.75 C 4.921875 -4.820312 5.039062 -4.859375 5.1875 -4.859375 L 7.3125 -4.859375 C 7.59375 -4.859375 7.734375 -4.71875 7.734375 -4.4375 L 7.734375 -0.84375 C 7.734375 -0.625 7.644531 -0.472656 7.46875 -0.390625 C 7.320312 -0.316406 7.054688 -0.210938 6.671875 -0.078125 C 6.285156 0.0546875 5.707031 0.125 4.9375 0.125 C 3.507812 0.125 2.445312 -0.265625 1.75 -1.046875 C 1.050781 -1.828125 0.703125 -2.945312 0.703125 -4.40625 C 0.703125 -5.882812 1.03125 -7.007812 1.6875 -7.78125 C 2.351562 -8.5625 3.359375 -8.953125 4.703125 -8.953125 C 5.546875 -8.953125 6.1875 -8.875 6.625 -8.71875 C 7.0625 -8.570312 7.351562 -8.457031 7.5 -8.375 C 7.65625 -8.300781 7.734375 -8.171875 7.734375 -7.984375 L 7.734375 -6.8125 C 7.734375 -6.65625 7.691406 -6.546875 7.609375 -6.484375 C 7.535156 -6.421875 7.410156 -6.390625 7.234375 -6.390625 Z M 7.234375 -6.390625 "/></g></g></g><g fill="#7ed957" fill-opacity="1"><g transform="translate(187.855269, 255.710388)"><g><path d="M 7.46875 -6.671875 C 7.28125 -6.671875 7.140625 -6.703125 7.046875 -6.765625 C 6.953125 -6.828125 6.90625 -6.941406 6.90625 -7.109375 L 6.90625 -7.734375 L 2.71875 -7.734375 L 2.71875 -4.953125 L 5.296875 -4.953125 C 5.441406 -4.953125 5.554688 -4.914062 5.640625 -4.84375 C 5.734375 -4.769531 5.78125 -4.625 5.78125 -4.40625 C 5.78125 -4.195312 5.734375 -4.054688 5.640625 -3.984375 C 5.554688 -3.910156 5.441406 -3.875 5.296875 -3.875 L 2.71875 -3.875 L 2.71875 -1.09375 L 6.890625 -1.09375 L 6.90625 -1.71875 C 6.90625 -1.882812 6.953125 -2 7.046875 -2.0625 C 7.140625 -2.125 7.28125 -2.15625 7.46875 -2.15625 C 7.644531 -2.15625 7.773438 -2.125 7.859375 -2.0625 C 7.941406 -2 7.984375 -1.882812 7.984375 -1.71875 L 7.984375 -0.453125 C 7.984375 -0.328125 7.9375 -0.21875 7.84375 -0.125 C 7.757812 -0.0390625 7.660156 0 7.546875 0 L 0.984375 0 C 0.847656 0 0.742188 -0.0351562 0.671875 -0.109375 C 0.597656 -0.179688 0.5625 -0.328125 0.5625 -0.546875 C 0.5625 -0.765625 0.597656 -0.90625 0.671875 -0.96875 C 0.742188 -1.039062 0.847656 -1.078125 0.984375 -1.078125 L 1.53125 -1.078125 L 1.53125 -7.75 L 0.984375 -7.75 C 0.847656 -7.75 0.742188 -7.785156 0.671875 -7.859375 C 0.597656 -7.929688 0.5625 -8.070312 0.5625 -8.28125 C 0.5625 -8.5 0.597656 -8.640625 0.671875 -8.703125 C 0.742188 -8.773438 0.847656 -8.8125 0.984375 -8.8125 L 7.546875 -8.8125 C 7.660156 -8.8125 7.757812 -8.769531 7.84375 -8.6875 C 7.9375 -8.601562 7.984375 -8.503906 7.984375 -8.390625 L 7.984375 -7.109375 C 7.984375 -6.941406 7.941406 -6.828125 7.859375 -6.765625 C 7.773438 -6.703125 7.644531 -6.671875 7.46875 -6.671875 Z M 7.46875 -6.671875 "/></g></g></g><g fill="#7ed957" fill-opacity="1"><g transform="translate(204.160432, 255.710388)"><g><path d="M 7.5 -1.078125 L 8.34375 -1.078125 C 8.476562 -1.078125 8.578125 -1.039062 8.640625 -0.96875 C 8.710938 -0.90625 8.75 -0.765625 8.75 -0.546875 C 8.75 -0.328125 8.710938 -0.179688 8.640625 -0.109375 C 8.578125 -0.0351562 8.476562 0 8.34375 0 L 6.875 0 C 6.78125 0 6.691406 -0.03125 6.609375 -0.09375 C 6.535156 -0.15625 6.484375 -0.234375 6.453125 -0.328125 L 5.859375 -2.578125 C 5.796875 -2.796875 5.671875 -2.992188 5.484375 -3.171875 C 5.296875 -3.347656 5.054688 -3.4375 4.765625 -3.4375 L 2.71875 -3.4375 L 2.71875 -1.078125 L 3.234375 -1.078125 C 3.367188 -1.078125 3.472656 -1.039062 3.546875 -0.96875 C 3.628906 -0.90625 3.671875 -0.765625 3.671875 -0.546875 C 3.671875 -0.328125 3.628906 -0.179688 3.546875 -0.109375 C 3.472656 -0.0351562 3.367188 0 3.234375 0 L 1 0 C 0.851562 0 0.742188 -0.0351562 0.671875 -0.109375 C 0.597656 -0.179688 0.5625 -0.328125 0.5625 -0.546875 C 0.5625 -0.765625 0.597656 -0.90625 0.671875 -0.96875 C 0.742188 -1.039062 0.851562 -1.078125 1 -1.078125 L 1.515625 -1.078125 L 1.515625 -7.734375 L 0.984375 -7.734375 C 0.847656 -7.734375 0.742188 -7.769531 0.671875 -7.84375 C 0.597656 -7.925781 0.5625 -8.070312 0.5625 -8.28125 C 0.5625 -8.488281 0.597656 -8.628906 0.671875 -8.703125 C 0.742188 -8.773438 0.847656 -8.8125 0.984375 -8.8125 L 5.125 -8.8125 C 6.0625 -8.8125 6.757812 -8.609375 7.21875 -8.203125 C 7.6875 -7.804688 7.921875 -7.160156 7.921875 -6.265625 C 7.921875 -5.585938 7.796875 -5.054688 7.546875 -4.671875 C 7.304688 -4.296875 6.921875 -4.03125 6.390625 -3.875 C 6.691406 -3.632812 6.894531 -3.3125 7 -2.90625 Z M 6.734375 -6.125 C 6.734375 -6.738281 6.585938 -7.160156 6.296875 -7.390625 C 6.003906 -7.617188 5.539062 -7.734375 4.90625 -7.734375 L 2.71875 -7.734375 L 2.71875 -4.53125 L 4.90625 -4.53125 C 5.539062 -4.53125 6.003906 -4.644531 6.296875 -4.875 C 6.585938 -5.113281 6.734375 -5.53125 6.734375 -6.125 Z M 6.734375 -6.125 "/></g></g></g><g fill="#7ed957" fill-opacity="1"><g transform="translate(220.67548, 255.710388)"><g/></g></g><g fill="#7ed957" fill-opacity="1"><g transform="translate(232.335235, 255.710388)"><g><path d="M 8.09375 -1.078125 L 8.65625 -1.078125 C 8.789062 -1.078125 8.894531 -1.039062 8.96875 -0.96875 C 9.050781 -0.90625 9.09375 -0.765625 9.09375 -0.546875 C 9.09375 -0.328125 9.050781 -0.179688 8.96875 -0.109375 C 8.894531 -0.0351562 8.789062 0 8.65625 0 L 6.421875 0 C 6.285156 0 6.175781 -0.0351562 6.09375 -0.109375 C 6.019531 -0.179688 5.984375 -0.328125 5.984375 -0.546875 C 5.984375 -0.765625 6.019531 -0.90625 6.09375 -0.96875 C 6.175781 -1.039062 6.285156 -1.078125 6.421875 -1.078125 L 6.828125 -1.078125 L 6.203125 -2.984375 L 3.03125 -2.984375 L 2.390625 -1.078125 L 2.8125 -1.078125 C 2.957031 -1.078125 3.066406 -1.039062 3.140625 -0.96875 C 3.210938 -0.90625 3.25 -0.765625 3.25 -0.546875 C 3.25 -0.328125 3.210938 -0.179688 3.140625 -0.109375 C 3.066406 -0.0351562 2.957031 0 2.8125 0 L 0.59375 0 C 0.4375 0 0.320312 -0.0351562 0.25 -0.109375 C 0.175781 -0.179688 0.140625 -0.328125 0.140625 -0.546875 C 0.140625 -0.765625 0.175781 -0.90625 0.25 -0.96875 C 0.320312 -1.039062 0.4375 -1.078125 0.59375 -1.078125 L 1.140625 -1.078125 L 3.359375 -7.75 L 2.484375 -7.75 C 2.347656 -7.75 2.238281 -7.785156 2.15625 -7.859375 C 2.082031 -7.929688 2.046875 -8.070312 2.046875 -8.28125 C 2.046875 -8.5 2.082031 -8.640625 2.15625 -8.703125 C 2.238281 -8.773438 2.347656 -8.8125 2.484375 -8.8125 L 5.125 -8.8125 C 5.25 -8.8125 5.359375 -8.773438 5.453125 -8.703125 C 5.546875 -8.640625 5.613281 -8.546875 5.65625 -8.421875 Z M 4.609375 -7.75 L 3.375 -4.046875 L 5.84375 -4.046875 Z M 4.609375 -7.75 "/></g></g></g><g fill="#7ed957" fill-opacity="1"><g transform="translate(249.186087, 255.710388)"><g><path d="M 1.0625 -8.8125 L 5.125 -8.8125 C 6.0625 -8.8125 6.757812 -8.597656 7.21875 -8.171875 C 7.6875 -7.753906 7.921875 -7.070312 7.921875 -6.125 C 7.921875 -5.175781 7.6875 -4.488281 7.21875 -4.0625 C 6.757812 -3.644531 6.035156 -3.4375 5.046875 -3.4375 L 2.71875 -3.4375 L 2.71875 -1.078125 L 3.234375 -1.078125 C 3.367188 -1.078125 3.472656 -1.039062 3.546875 -0.96875 C 3.628906 -0.90625 3.671875 -0.765625 3.671875 -0.546875 C 3.671875 -0.328125 3.628906 -0.179688 3.546875 -0.109375 C 3.472656 -0.0351562 3.367188 0 3.234375 0 L 1 0 C 0.851562 0 0.742188 -0.0351562 0.671875 -0.109375 C 0.597656 -0.179688 0.5625 -0.328125 0.5625 -0.546875 C 0.5625 -0.765625 0.597656 -0.90625 0.671875 -0.96875 C 0.742188 -1.039062 0.851562 -1.078125 1 -1.078125 L 1.515625 -1.078125 L 1.515625 -7.734375 L 1.0625 -7.734375 C 0.9375 -7.734375 0.832031 -7.769531 0.75 -7.84375 C 0.675781 -7.925781 0.640625 -8.070312 0.640625 -8.28125 C 0.640625 -8.488281 0.675781 -8.628906 0.75 -8.703125 C 0.832031 -8.773438 0.9375 -8.8125 1.0625 -8.8125 Z M 2.71875 -4.53125 L 4.90625 -4.53125 C 5.539062 -4.53125 6.003906 -4.644531 6.296875 -4.875 C 6.585938 -5.113281 6.734375 -5.53125 6.734375 -6.125 C 6.734375 -6.738281 6.585938 -7.160156 6.296875 -7.390625 C 6.003906 -7.617188 5.539062 -7.734375 4.90625 -7.734375 L 2.71875 -7.734375 Z M 2.71875 -4.53125 "/></g></g></g><g fill="#7ed957" fill-opacity="1"><g transform="translate(265.183415, 255.710388)"><g><path d="M 1.0625 -8.8125 L 5.125 -8.8125 C 6.0625 -8.8125 6.757812 -8.597656 7.21875 -8.171875 C 7.6875 -7.753906 7.921875 -7.070312 7.921875 -6.125 C 7.921875 -5.175781 7.6875 -4.488281 7.21875 -4.0625 C 6.757812 -3.644531 6.035156 -3.4375 5.046875 -3.4375 L 2.71875 -3.4375 L 2.71875 -1.078125 L 3.234375 -1.078125 C 3.367188 -1.078125 3.472656 -1.039062 3.546875 -0.96875 C 3.628906 -0.90625 3.671875 -0.765625 3.671875 -0.546875 C 3.671875 -0.328125 3.628906 -0.179688 3.546875 -0.109375 C 3.472656 -0.0351562 3.367188 0 3.234375 0 L 1 0 C 0.851562 0 0.742188 -0.0351562 0.671875 -0.109375 C 0.597656 -0.179688 0.5625 -0.328125 0.5625 -0.546875 C 0.5625 -0.765625 0.597656 -0.90625 0.671875 -0.96875 C 0.742188 -1.039062 0.851562 -1.078125 1 -1.078125 L 1.515625 -1.078125 L 1.515625 -7.734375 L 1.0625 -7.734375 C 0.9375 -7.734375 0.832031 -7.769531 0.75 -7.84375 C 0.675781 -7.925781 0.640625 -8.070312 0.640625 -8.28125 C 0.640625 -8.488281 0.675781 -8.628906 0.75 -8.703125 C 0.832031 -8.773438 0.9375 -8.8125 1.0625 -8.8125 Z M 2.71875 -4.53125 L 4.90625 -4.53125 C 5.539062 -4.53125 6.003906 -4.644531 6.296875 -4.875 C 6.585938 -5.113281 6.734375 -5.53125 6.734375 -6.125 C 6.734375 -6.738281 6.585938 -7.160156 6.296875 -7.390625 C 6.003906 -7.617188 5.539062 -7.734375 4.90625 -7.734375 L 2.71875 -7.734375 Z M 2.71875 -4.53125 "/></g></g></g></svg>